<?xml version="1.0" standalone="no"?><!DOCTYPE svg PUBLIC "-//W3C//DTD SVG 1.1//EN" "http://www.w3.org/Graphics/SVG/1.1/DTD/svg11.dtd"><svg t="1501393795811" class="icon" style="" viewBox="0 0 1024 1024" version="1.1" xmlns="http://www.w3.org/2000/svg" p-id="1007" xmlns:xlink="http://www.w3.org/1999/xlink" width="200" height="200"><defs><style type="text/css"></style></defs><path d="M511.979978 20.021899C240.362897 20.021899 20.162052 240.222744 20.162052 511.839825s220.200845 491.817926 491.817926 491.817926S1003.797904 783.456906 1003.797904 511.839825 783.617081 20.021899 511.979978 20.021899L511.979978 20.021899zM786.13984 506.333803l0 15.136556L785.999687 521.470358c-2.102299 32.79587-29.392148 58.764273-62.728609 58.764273L580.374785 580.234632l0 205.765056-78.005318 0L502.369467 785.859534c-32.815892-2.122321-58.764273-29.372126-58.764273-62.708588l0-142.916315L237.840138 580.234632l0-78.005318 0.140153 0c2.122321-32.815892 29.372126-58.784295 62.708588-58.784295l142.896293 0 0-142.916315 0-62.868763 78.005318 0 0 0.160175c32.815892 2.102299 58.764273 29.372126 58.764273 62.708588l0 142.916315 205.785077 0L786.13984 506.333803 786.13984 506.333803zM786.13984 506.333803" p-id="1008" fill="#DCDCD2"></path></svg>