<?xml version="1.0" standalone="no"?><!DOCTYPE svg PUBLIC "-//W3C//DTD SVG 1.1//EN" "http://www.w3.org/Graphics/SVG/1.1/DTD/svg11.dtd"><svg t="1520307149404" class="icon" style="" viewBox="0 0 1024 1024" version="1.1" xmlns="http://www.w3.org/2000/svg" p-id="1010" xmlns:xlink="http://www.w3.org/1999/xlink" width="200" height="200"><defs><style type="text/css"></style></defs><path d="M753.2 201.8v516.9c0 83.4-50.4 241.2-241.2 241.2-190.8 0-241.2-157.8-241.2-241.2V236.3c0-4.4 0.6-43.7 20.9-84.3 28.4-56.7 82.2-88 151.4-88 69.3 0 123.1 31.3 151.4 88 20.2 40.5 20.9 79.9 20.9 84.3v448c0 41.6-27.5 103.4-103.4 103.4-75.8 0-103.4-61.8-103.5-103.4V374.2c0-19 15.5-34.5 34.5-34.5 19.1 0 34.5 15.4 34.5 34.5v310.2c0.5 15.5 6.7 34.5 34.5 34.5s34.1-19 34.5-34.8V236.3c-0.2-17.1-6.1-103.4-103.4-103.4-43.7 0-73 16.3-89.8 49.9-13 26-13.6 53.2-13.6 53.5v482.5c0.1 17.5 6.1 172.3 172.3 172.3 170.4 0 172.3-165.3 172.3-172.3v-517c0-19 15.4-34.5 34.5-34.5s34.4 15.5 34.4 34.5" p-id="1011" fill="#7E8282"></path></svg>