<?xml version="1.0" standalone="no"?><!DOCTYPE svg PUBLIC "-//W3C//DTD SVG 1.1//EN" "http://www.w3.org/Graphics/SVG/1.1/DTD/svg11.dtd"><svg t="1516266497241" class="icon" style="" viewBox="0 0 1024 1024" version="1.1" xmlns="http://www.w3.org/2000/svg" p-id="3015" xmlns:xlink="http://www.w3.org/1999/xlink" width="200" height="200"><defs><style type="text/css"></style></defs><path d="M832 64H192c-35.3 0-64 28.7-64 64v768c0 35.3 28.7 64 64 64h640c35.3 0 64-28.7 64-64V128c0-35.3-28.7-64-64-64z m-8 824H200V136h624v752z" p-id="3016" fill="#7E8282"></path><path d="M288 352c0 17.673 14.327 32 32 32 17.673 0 32-14.327 32-32 0-17.673-14.327-32-32-32-17.673 0-32 14.327-32 32zM288 512c0 17.673 14.327 32 32 32 17.673 0 32-14.327 32-32 0-17.673-14.327-32-32-32-17.673 0-32 14.327-32 32zM288 672c0 17.673 14.327 32 32 32 17.673 0 32-14.327 32-32 0-17.673-14.327-32-32-32-17.673 0-32 14.327-32 32zM448 704h256c17.7 0 32-14.3 32-32s-14.3-32-32-32H448c-17.7 0-32 14.3-32 32s14.3 32 32 32z m0-320h256c17.7 0 32-14.3 32-32s-14.3-32-32-32H448c-17.7 0-32 14.3-32 32s14.3 32 32 32z m0 160h256c17.7 0 32-14.3 32-32s-14.3-32-32-32H448c-17.7 0-32 14.3-32 32s14.3 32 32 32z" p-id="3017" fill="#7E8282"></path></svg>