<?xml version="1.0" standalone="no"?><!DOCTYPE svg PUBLIC "-//W3C//DTD SVG 1.1//EN" "http://www.w3.org/Graphics/SVG/1.1/DTD/svg11.dtd"><svg t="1520316830349" class="icon" style="" viewBox="0 0 1025 1024" version="1.1" xmlns="http://www.w3.org/2000/svg" p-id="3011" xmlns:xlink="http://www.w3.org/1999/xlink" width="200.1953125" height="200"><defs><style type="text/css"></style></defs><path d="M896.548263 223.795521l-128.051424 0L768.496839 95.771728c0-35.382509-28.702046-64.011897-64.024177-64.011897l-384.155294 0c-35.328271 0-64.0252 28.629387-64.0252 64.011897l0 128.023793-128.05347 0c-35.325201 0-64.026223 28.629387-64.026223 64.011897 0 35.382509 28.701022 64.01292 64.026223 64.01292l64.024177 0 0 576.111162c0 35.379439 28.702046 64.00985 64.030317 64.00985l512.205694 0c35.323154 0 64.024177-28.630411 64.024177-64.00985L832.523062 351.819314l64.026223 0c35.327248 0 64.0252-28.630411 64.0252-64.01292C960.573463 252.424908 931.874487 223.795521 896.548263 223.795521zM384.342568 863.917556l-64.0252 0L320.317368 351.819314l64.0252 0L384.342568 863.917556zM384.342568 159.782601l256.101824 0 0 64.011897-256.101824 0L384.342568 159.782601zM544.403522 863.917556l-64.024177 0L480.379345 351.819314l64.024177 0L544.403522 863.917556zM704.472662 863.917556l-64.027247 0L640.445415 351.819314l64.027247 0L704.472662 863.917556z" p-id="3012" fill="#7E8282"></path></svg>