<?xml version="1.0" standalone="no"?><!DOCTYPE svg PUBLIC "-//W3C//DTD SVG 1.1//EN" "http://www.w3.org/Graphics/SVG/1.1/DTD/svg11.dtd"><svg t="1501743504198" class="icon" style="" viewBox="0 0 1024 1024" version="1.1" xmlns="http://www.w3.org/2000/svg" p-id="4856" xmlns:xlink="http://www.w3.org/1999/xlink" width="200" height="200"><defs><style type="text/css"></style></defs><path d="M269.235954 831.517127c0 5.928013 5.16565 10.365068 15.529695 13.311167l2.218528 0c11.82021 2.981914 17.748223 7.41897 17.748223 13.31219 0 8.874111-7.417947 13.311167-22.185278 13.311167l-77.648474 0c-13.311167 0-19.966751-4.437056-19.966751-13.311167 0-5.89322 4.437056-10.330276 13.311167-13.31219 16.257266-2.946099 22.912849-12.548804 19.966751-28.839839 0-1.456165 0-2.947122 0-4.438079L218.209814 520.921183c0-1.456165 0-2.947122 0-4.437056 2.946099-22.186302-5.200442-32.516578-24.403806-31.060413-13.311167 0-28.841885 1.489934-46.589085 4.437056-17.748223 4.437056-34.768875 14.07353-51.027164 28.840862-7.417947 7.41897-14.07353 11.092639-19.966751 11.092639-7.41897 0-11.092639-3.674693-11.092639-11.092639 0-2.947122 0.728594-6.655584 2.218528-11.092639l0-2.218528c0-1.456165 0.728594-5.16565 2.218528-11.092639 1.456165-25.131377 5.89322-37.714973 13.311167-37.714973l317.251527 0c2.946099 0 5.89322 0.762363 8.874111 2.218528 5.89322 7.41897 9.601682 22.186302 11.092639 44.370557 1.456165 4.437056 2.218528 8.874111 2.218528 13.31219 0 8.874111-2.981914 13.311167-8.874111 13.311167-4.437056 0-9.636474-2.218528-15.529695-6.655584-1.489934-1.455141-2.980891-2.947122-4.437056-4.437056-14.802124-13.311167-29.603225-22.185278-44.370557-26.622334-13.311167-4.438079-29.603225-6.655584-48.807612-6.655584-13.311167 0-22.185278 2.218528-26.622334 6.655584-2.980891 4.437056-4.437056 14.801101-4.437056 31.05939L269.236977 831.517127z" p-id="4857" fill="#7E8282"></path><path d="M693.616384 802.252617c0 10.261715 8.967232 17.949814 26.90272 23.066345l3.851725 0c20.493753 5.130857 30.754444 12.818957 30.754444 23.066345 0 15.377222-12.818957 23.066345-38.443567 23.066345L582.123081 871.451652c-23.066345 0-34.591843-7.689123-34.591843-23.066345 0-10.246365 7.689123-17.935488 23.066345-23.066345 28.181853-5.115508 39.708374-21.787212 34.591843-49.984415 0-2.558265 0-5.116531 0-7.689123L605.189426 264.042675c0-2.558265 0-5.130857 0-7.689123 5.115508-38.443567-8.967232-56.379055-42.280966-53.82079-23.080671 0-49.984415 2.572592-80.738859 7.689123-30.754444 7.689123-60.23078 24.345478-88.412632 49.969065-12.818957 12.818957-24.359804 19.228947-34.606169 19.228947-12.818957 0-19.21462-6.40999-19.21462-19.228947 0-5.115508 1.279133-11.525498 3.837398-19.21462l0-3.851725c0-2.558265 1.279133-8.952906 3.851725-19.21462 2.558265-43.574425 10.246365-65.361637 23.066345-65.361637l549.736463 0c5.116531 0 10.246365 1.293459 15.377222 3.851725 10.246365 12.818957 16.656355 38.443567 19.228947 76.887135 2.558265 7.689123 3.837398 15.377222 3.837398 23.066345 0 15.377222-5.130857 23.066345-15.377222 23.066345-7.689123 0-16.656355-3.837398-26.90272-11.540847-2.572592-2.558265-5.130857-5.115508-7.689123-7.689123-25.638937-23.050995-51.263547-38.429241-76.887135-46.13269-23.080671-7.673773-51.263547-11.525498-84.576257-11.525498-23.080671 0-38.457894 3.851725-46.13269 11.525498-5.130857 7.703449-7.689123 25.638937-7.689123 53.82079L693.617407 802.252617z" p-id="4858" fill="#7E8282"></path></svg>