<?xml version="1.0" standalone="no"?><!DOCTYPE svg PUBLIC "-//W3C//DTD SVG 1.1//EN" "http://www.w3.org/Graphics/SVG/1.1/DTD/svg11.dtd"><svg t="1507787195302" class="icon" style="" viewBox="0 0 1024 1024" version="1.1" xmlns="http://www.w3.org/2000/svg" p-id="1217" xmlns:xlink="http://www.w3.org/1999/xlink" width="200" height="200"><defs><style type="text/css"></style></defs><path d="M1004.16 613.856l0-228.16c0-17.664-14.304-32-32-32l-104.064 0L868.096 133.024c0-17.664-14.304-32-32-32L59.808 101.024c-17.696 0-32 14.336-32 32l0 252.672c0 17.664 14.304 32 32 32l24.064 0 0 188.672-44.16 0c-17.696 0-32 14.336-32 32l0 252.672c0 17.664 14.304 32 32 32l944.576 0c17.696 0 32-14.336 32-32l0-252.672C1016.288 628.288 1011.392 619.712 1004.16 613.856zM940.16 606.336 395.872 606.336l0-188.672 348 0L743.872 512c0 8.832 7.168 16 16 16s16-7.168 16-16l0-94.336 60.224 0 35.296 0L871.392 512c0 8.832 7.168 16 16 16s16-7.168 16-16l0-94.336 36.768 0L940.16 606.336zM354.88 858.976l0-188.672 51.552 0 0 188.672L354.88 858.976zM147.872 606.336l0-188.672 216 0 0 188.672L147.872 606.336zM91.808 165.024l712.288 0 0 188.672L115.872 353.696 91.808 353.696 91.808 165.024zM71.712 670.336 112 670.336l0 94.336c0 8.832 7.168 16 16 16s16-7.168 16-16l0-94.336 178.88 0 0 188.672L71.712 859.008 71.712 670.336zM952.288 858.976 438.432 858.976l0-188.672 513.856 0L952.288 858.976z" p-id="1218" fill="#7E8282"></path><path d="M899.488 843.84c8.832 0 16-7.168 16-16l0-126.336c0-8.832-7.168-16-16-16s-16 7.168-16 16l0 126.336C883.488 836.672 890.656 843.84 899.488 843.84z" p-id="1219" fill="#7E8282"></path><path d="M845.376 790.144c8.832 0 16-7.168 16-16l0-72.672c0-8.832-7.168-16-16-16s-16 7.168-16 16l0 72.672C829.376 783.008 836.544 790.144 845.376 790.144z" p-id="1220" fill="#7E8282"></path><path d="M751.328 338.496c8.832 0 16-7.168 16-16L767.328 196.16c0-8.832-7.168-16-16-16s-16 7.168-16 16l0 126.336C735.328 331.328 742.464 338.496 751.328 338.496z" p-id="1221" fill="#7E8282"></path><path d="M697.184 311.68c8.832 0 16-7.168 16-16L713.184 223.008c0-8.832-7.168-16-16-16s-16 7.168-16 16L681.184 295.68C681.184 304.512 688.352 311.68 697.184 311.68z" p-id="1222" fill="#7E8282"></path><path d="M252.032 317.12l242.944 0c8.832 0 16-7.168 16-16L510.976 217.568c0-8.832-7.168-16-16-16L252.032 201.568c-8.832 0-16 7.168-16 16L236.032 301.12C236.032 309.952 243.2 317.12 252.032 317.12zM268.032 233.568l210.944 0L478.976 285.12 268.032 285.12 268.032 233.568z" p-id="1223" fill="#7E8282"></path><path d="M315.008 468.96 188.672 468.96c-8.832 0-16 7.168-16 16s7.168 16 16 16l126.336 0c8.832 0 16-7.168 16-16S323.84 468.96 315.008 468.96z" p-id="1224" fill="#7E8282"></path><path d="M261.344 523.04 188.672 523.04c-8.832 0-16 7.168-16 16s7.168 16 16 16l72.672 0c8.832 0 16-7.168 16-16S270.176 523.04 261.344 523.04z" p-id="1225" fill="#7E8282"></path></svg>